<?xml version="1.0" standalone="no"?>
<!DOCTYPE svg PUBLIC "-//W3C//DTD SVG 20010904//EN"
 "http://www.w3.org/TR/2001/REC-SVG-20010904/DTD/svg10.dtd">
<svg version="1.0" xmlns="http://www.w3.org/2000/svg"
 width="512.000000pt" height="512.000000pt" viewBox="0 0 512.000000 512.000000"
 preserveAspectRatio="xMidYMid meet">

<g transform="translate(0.000000,512.000000) scale(0.100000,-0.100000)"
fill="#000000" stroke="none">
<path d="M2605 4034 c-132 -18 -201 -30 -340 -60 -171 -37 -251 -64 -355 -121
-161 -89 -335 -254 -455 -432 l-69 -102 -70 69 c-129 125 -249 211 -426 305
-375 198 -704 190 -807 -21 -24 -50 -27 -68 -27 -147 1 -105 30 -239 70 -317
26 -51 88 -118 270 -288 98 -92 128 -149 122 -227 -8 -99 -96 -184 -298 -292
-142 -77 -206 -154 -217 -265 -4 -42 -1 -57 19 -85 38 -55 66 -70 182 -92 135
-25 209 -53 236 -86 42 -53 19 -107 -99 -236 -108 -117 -138 -160 -157 -225
-23 -80 -7 -130 65 -202 82 -81 193 -129 297 -130 97 0 288 84 425 187 43 32
155 128 250 214 96 86 190 170 209 187 l36 30 64 -65 c165 -168 379 -288 627
-351 100 -25 123 -27 318 -27 184 0 223 3 315 23 298 67 554 195 744 373 43
40 82 69 89 65 6 -3 75 -51 152 -105 460 -328 799 -451 1050 -380 51 14 110
73 124 124 27 99 2 253 -58 354 -21 36 -82 112 -134 168 -108 114 -137 163
-137 225 0 88 59 137 257 216 66 27 135 60 155 76 75 57 104 169 73 282 l-18
66 -113 74 c-167 110 -182 138 -117 216 60 71 137 263 169 419 48 238 -72 398
-311 416 -130 10 -243 -32 -550 -202 -181 -101 -302 -151 -388 -161 l-52 -6
-35 48 c-51 73 -225 249 -301 305 -86 64 -233 133 -339 160 -65 16 -123 22
-250 24 -91 2 -178 1 -195 -1z m419 -178 c286 -86 514 -278 653 -552 82 -162
133 -338 154 -539 18 -172 3 -322 -48 -480 l-26 -80 -32 95 c-96 289 -258 586
-443 814 -257 317 -586 560 -921 680 -52 18 -90 35 -85 38 9 5 142 31 249 47
33 6 139 8 235 7 155 -3 185 -6 264 -30z m-810 -117 c532 -181 968 -603 1296
-1254 47 -93 107 -224 134 -291 l48 -120 -45 -70 c-81 -125 -202 -250 -331
-342 l-47 -34 8 29 c4 15 8 69 7 118 -1 76 -7 107 -38 200 -62 183 -172 392
-341 645 -149 223 -345 401 -634 577 -103 62 -375 202 -500 257 l-63 28 53 55
c106 108 279 242 313 243 11 0 74 -18 140 -41z m2473 -36 c67 -31 117 -128
153 -292 l19 -84 -44 -88 c-25 -48 -66 -123 -92 -166 -40 -66 -47 -86 -47
-128 1 -62 30 -113 91 -160 62 -47 111 -112 128 -169 20 -66 19 -95 -5 -134
-23 -38 -52 -52 -178 -86 -260 -72 -324 -170 -231 -354 16 -33 96 -148 177
-255 158 -210 192 -266 200 -332 6 -58 -10 -83 -73 -111 -144 -66 -379 -10
-716 172 -120 65 -395 227 -413 244 -4 4 21 48 56 97 83 116 139 226 182 354
59 178 69 243 73 469 l3 205 61 7 c110 13 197 49 302 127 47 36 60 67 32 78
-9 3 -41 -10 -73 -30 -106 -65 -204 -103 -309 -121 -30 -5 -32 -4 -38 37 -14
81 -55 208 -99 302 l-44 94 36 6 c142 23 239 62 454 182 253 142 276 153 320
153 22 0 56 -8 75 -17z m-4201 -39 c202 -41 529 -189 787 -356 42 -28 77 -52
77 -54 0 -1 -18 -40 -40 -86 -23 -46 -57 -134 -76 -195 -20 -62 -38 -113 -40
-113 -3 0 -21 7 -40 15 -45 18 -102 62 -177 134 -48 46 -60 54 -75 45 -28 -18
-20 -40 37 -105 60 -68 135 -120 200 -140 41 -12 42 -14 36 -43 -3 -17 -8
-112 -12 -212 l-5 -181 -67 -21 c-37 -12 -128 -38 -201 -57 -73 -19 -137 -38
-143 -44 -5 -5 -7 -21 -3 -35 5 -22 12 -26 45 -26 65 0 198 29 297 65 52 19
94 32 94 30 0 -2 16 -56 35 -120 36 -118 79 -213 143 -318 35 -57 35 -58 16
-76 -53 -50 -359 -316 -432 -374 -90 -73 -141 -107 -212 -143 -103 -52 -84
-62 -214 111 -64 85 -116 157 -116 161 0 3 28 36 61 72 104 113 119 142 119
236 0 101 -12 145 -48 179 -30 29 -57 35 -230 57 -265 32 -233 133 88 275 162
71 225 109 264 158 29 37 31 44 31 125 0 83 -2 91 -40 160 -45 82 -115 173
-260 337 -181 204 -215 264 -215 384 0 147 105 199 316 155z m1299 -304 c393
-225 742 -487 937 -705 262 -293 408 -611 433 -943 3 -42 8 -92 11 -110 5 -33
5 -33 -88 -76 -129 -60 -338 -126 -338 -107 -1 42 -23 208 -36 269 -121 588
-607 1130 -1190 1328 -70 24 -84 32 -80 47 16 61 217 373 234 363 4 -2 57 -32
117 -66z m-188 -449 c308 -154 588 -410 770 -702 138 -221 236 -504 250 -726
l6 -82 -28 -7 c-44 -11 -294 3 -371 21 l-70 16 -3 52 c-1 29 -11 97 -22 152
-89 444 -373 826 -756 1019 -29 14 -53 32 -53 39 1 24 21 104 52 204 l31 102
48 -19 c26 -11 92 -41 146 -69z m-115 -411 c87 -62 231 -210 301 -308 143
-199 227 -413 272 -695 l6 -37 -58 25 c-152 68 -308 177 -403 282 -152 170
-275 430 -273 581 0 34 -3 62 -8 62 -5 0 -9 45 -9 100 l0 99 55 -32 c30 -17
83 -52 117 -77z"/>
<path d="M4040 2476 c0 -8 33 -40 73 -72 39 -32 102 -84 138 -116 68 -60 99
-72 99 -39 0 23 -82 99 -197 182 -81 59 -113 72 -113 45z"/>
</g>
</svg>
